<svg width="484" height="484" viewBox="0 0 484 484" fill="none" xmlns="http://www.w3.org/2000/svg">
<path d="M286.049 434C261.942 434 242.533 427.725 227.575 417.254C164.504 373.102 160.566 270.348 235.926 216.831C235.926 216.831 248.138 206.764 268.01 200.951C272.668 194.453 276.957 187.762 281.049 181.377C291.225 165.502 300.186 151.522 310.584 147.119C307.232 134.883 321.159 110.023 331.4 106.134C338.996 103.249 342.572 116.029 345.814 127.618C347.575 133.914 349.238 139.858 351.394 142.747C396.17 145.281 403.976 185.805 404 205.592C404.021 222.422 393.425 223.73 365.65 227.158C360.045 227.85 353.741 228.628 346.684 229.637C324.3 246.345 325.07 265.737 351.394 277.509L376.666 274.754C390.592 275.868 389.338 294.465 381.01 296.301C378.535 296.846 376.132 297.383 373.79 297.907C348.486 303.563 330.223 307.646 303.058 303.877C303.058 303.877 398 319.994 322.187 404.833C366.667 414.667 347.732 433.777 332 434H286.049Z" fill="black"/>
<path d="M197.169 50C131.908 50 93.9233 98.2059 117.783 148.583C117.783 148.583 141.642 116.522 165.504 144.766C181.973 164.258 165.027 176.456 142.151 192.923C116.076 211.692 82.297 236.007 81.5129 282.99C80.4792 344.954 163.334 408.868 227.575 417.254C164.504 373.102 160.566 270.348 235.926 216.831C222.997 205.592 254.124 180.157 261.067 173.685C268.01 167.213 277.363 152.001 277.363 126.927C277.363 75.8876 229.044 50 197.169 50Z" fill="black"/>
</svg>
